<?xml version="1.0" encoding="iso-8859-1"?>
<!-- Generator: Adobe Illustrator 19.0.0, SVG Export Plug-In . SVG Version: 6.00 Build 0)  -->
<svg version="1.1" id="Capa_1" xmlns="http://www.w3.org/2000/svg" xmlns:xlink="http://www.w3.org/1999/xlink" x="0px" y="0px"
	 viewBox="0 0 512 512" style="enable-background:new 0 0 512 512;" xml:space="preserve">
<g>
	<g transform="translate(1 1)">
		<path style="fill:#283593;" d="M502.467,468.333V485.4c-0.028,9.414-7.653,17.039-17.067,17.067H24.6
			c-9.414-0.028-17.039-7.653-17.067-17.067v-17.067l59.733-76.8v-42.667h375.467v42.667L502.467,468.333z"/>
		<path style="fill:#3F51B5;" d="M476.867,468.333V485.4c-0.028,9.414-7.653,17.039-17.067,17.067H24.6
			c-9.414-0.028-17.039-7.653-17.067-17.067v-17.067l59.733-76.8v-42.667h349.867v42.667L476.867,468.333z"/>
		<path style="fill:#1566C0;" d="M7.533,468.333h494.933V485.4c0,9.426-7.641,17.067-17.067,17.067H24.6
			c-9.426,0-17.067-7.641-17.067-17.067V468.333z"/>
		<path style="fill:#2296F3;" d="M7.533,468.333h469.333V485.4c0,9.426-7.641,17.067-17.067,17.067H24.6
			c-9.426,0-17.067-7.641-17.067-17.067V468.333z"/>
		<path style="fill:#607D8B;" d="M400.067,127h25.6c9.414,0.028,17.039,7.652,17.067,17.067v247.467H67.267V144.067
			c0.028-9.414,7.652-17.039,17.067-17.067H400.067z"/>
		<g>
			<path style="fill:#CFD8DC;" d="M377.376,127h23.854c9.087,0.359,16.186,7.977,15.903,17.067v247.467H67.267V144.067
				c-0.283-9.09,6.816-16.708,15.903-17.067H377.376z"/>
			<path style="fill:#CFD8DC;" d="M400.067,357.4H109.933V24.6c0.028-9.414,7.652-17.039,17.067-17.067h256
				c9.414,0.028,17.039,7.652,17.067,17.067V357.4"/>
		</g>
		<path style="fill:#F5F5F5;" d="M374.467,357.4H109.933V24.6c-0.37-8.993,6.572-16.606,15.561-17.067h233.412
			c8.989,0.46,15.93,8.074,15.561,17.067V357.4"/>
		<g>
			<path style="fill:#FF9801;" d="M357.4,92.867l-25.6,25.6h-25.6V101.4l-25.6,17.067V101.4L255,118.467h-13.739
				c-9.861,19.324-31.682,29.371-52.775,24.3c-21.094-5.071-35.963-23.939-35.963-45.633s14.869-40.562,35.963-45.633
				c21.094-5.071,42.914,4.976,52.775,24.3h99.072L357.4,92.867z"/>
			<path style="fill:#FF9801;" d="M186.733,105.667c-4.024-0.039-7.462-2.911-8.218-6.863c-0.756-3.953,1.38-7.89,5.105-9.412
				s8.007-0.205,10.235,3.146c2.227,3.352,1.783,7.809-1.063,10.654C191.156,104.75,188.992,105.633,186.733,105.667z"/>
		</g>
	</g>
	<g>
		<path d="M511.347,466.096c-0.06-0.144-0.161-0.257-0.228-0.396c-0.247-0.567-0.555-1.105-0.92-1.604l-57.933-74.486V145.067
			c-0.015-14.132-11.468-25.585-25.6-25.6H409.6V25.6C409.585,11.468,398.132,0.015,384,0H128
			c-14.132,0.015-25.585,11.468-25.6,25.6v93.867H85.333c-14.132,0.015-25.585,11.468-25.6,25.6V389.61L1.8,464.096
			c-0.366,0.501-0.675,1.04-0.922,1.609c-0.066,0.138-0.166,0.248-0.224,0.39c-0.367,0.93-0.566,1.917-0.589,2.917
			C0.06,469.124,0,469.219,0,469.333V486.4c0.015,14.132,11.468,25.585,25.6,25.6h460.8c14.132-0.015,25.585-11.468,25.6-25.6
			v-17.067c0-0.114-0.06-0.209-0.065-0.322C511.913,468.013,511.714,467.026,511.347,466.096z M119.467,25.6
			c0.005-4.711,3.822-8.529,8.533-8.533h256c4.711,0.005,8.529,3.822,8.533,8.533v324.267H119.467V25.6z M76.8,145.067
			c0.005-4.711,3.822-8.529,8.533-8.533H102.4v213.333h-8.533c-4.713,0-8.533,3.82-8.533,8.533s3.821,8.533,8.533,8.533h324.267
			c4.713,0,8.533-3.82,8.533-8.533s-3.82-8.533-8.533-8.533H409.6V136.533h17.067c4.711,0.005,8.529,3.822,8.533,8.533V384H76.8
			V145.067z M72.442,401.067h367.117l46.458,59.733H25.983L72.442,401.067z M494.933,486.4c-0.005,4.711-3.822,8.529-8.533,8.533
			H25.6c-4.711-0.005-8.529-3.822-8.533-8.533v-8.533h477.867V486.4z"/>
		<path d="M392.533,426.667H119.467c-4.713,0-8.533,3.82-8.533,8.533s3.821,8.533,8.533,8.533h273.067
			c4.713,0,8.533-3.821,8.533-8.533S397.246,426.667,392.533,426.667z"/>
		<path d="M85.333,426.667H76.8c-4.713,0-8.533,3.82-8.533,8.533s3.821,8.533,8.533,8.533h8.533c4.713,0,8.533-3.821,8.533-8.533
			S90.046,426.667,85.333,426.667z"/>
		<path d="M435.2,426.667h-8.533c-4.713,0-8.533,3.82-8.533,8.533s3.82,8.533,8.533,8.533h8.533c4.713,0,8.533-3.821,8.533-8.533
			S439.913,426.667,435.2,426.667z"/>
		<path d="M145.067,187.733h25.6c4.713,0,8.533-3.82,8.533-8.533s-3.821-8.533-8.533-8.533h-25.6c-4.713,0-8.533,3.821-8.533,8.533
			S140.354,187.733,145.067,187.733z"/>
		<path d="M145.067,221.867h8.533c4.713,0,8.533-3.821,8.533-8.533s-3.821-8.533-8.533-8.533h-8.533
			c-4.713,0-8.533,3.82-8.533,8.533S140.354,221.867,145.067,221.867z"/>
		<path d="M264.533,213.333c0.001-2.263-0.898-4.434-2.499-6.035c-1.6-1.6-3.771-2.499-6.035-2.499h-68.267
			c-4.713,0-8.533,3.82-8.533,8.533s3.821,8.533,8.533,8.533H256c2.263,0.001,4.434-0.898,6.035-2.499
			C263.635,217.768,264.534,215.597,264.533,213.333z"/>
		<path d="M230.4,187.733c4.713,0,8.533-3.82,8.533-8.533s-3.821-8.533-8.533-8.533h-25.6c-4.713,0-8.533,3.821-8.533,8.533
			s3.821,8.533,8.533,8.533H230.4z"/>
		<path d="M315.733,204.8h-25.6c-4.713,0-8.533,3.82-8.533,8.533s3.821,8.533,8.533,8.533h25.6c4.713,0,8.533-3.821,8.533-8.533
			S320.446,204.8,315.733,204.8z"/>
		<path d="M349.867,170.667c-4.713,0-8.533,3.821-8.533,8.533s3.821,8.533,8.533,8.533h17.067c4.713,0,8.533-3.82,8.533-8.533
			s-3.82-8.533-8.533-8.533H349.867z"/>
		<path d="M366.933,204.8h-17.067c-4.713,0-8.533,3.82-8.533,8.533s3.821,8.533,8.533,8.533h17.067c4.713,0,8.533-3.821,8.533-8.533
			S371.646,204.8,366.933,204.8z"/>
		<path d="M315.733,170.667h-51.2c-4.713,0-8.533,3.821-8.533,8.533s3.821,8.533,8.533,8.533h51.2c4.713,0,8.533-3.82,8.533-8.533
			S320.446,170.667,315.733,170.667z"/>
		<path d="M145.067,256h25.6c4.713,0,8.533-3.82,8.533-8.533c0-4.713-3.821-8.533-8.533-8.533h-25.6
			c-4.713,0-8.533,3.821-8.533,8.533C136.533,252.18,140.354,256,145.067,256z"/>
		<path d="M230.4,238.933h-25.6c-4.713,0-8.533,3.821-8.533,8.533c0,4.713,3.821,8.533,8.533,8.533h25.6
			c4.713,0,8.533-3.82,8.533-8.533C238.933,242.754,235.113,238.933,230.4,238.933z"/>
		<path d="M366.933,238.933h-17.067c-4.713,0-8.533,3.821-8.533,8.533c0,4.713,3.821,8.533,8.533,8.533h17.067
			c4.713,0,8.533-3.82,8.533-8.533C375.467,242.754,371.646,238.933,366.933,238.933z"/>
		<path d="M315.733,238.933h-51.2c-4.713,0-8.533,3.821-8.533,8.533c0,4.713,3.821,8.533,8.533,8.533h51.2
			c4.713,0,8.533-3.82,8.533-8.533C324.267,242.754,320.446,238.933,315.733,238.933z"/>
		<path d="M200.533,153.6c18.888,0.043,36.471-9.627,46.552-25.6H256l0.003-0.001l0.004,0.001c1.009-0.022,2.006-0.223,2.944-0.595
			c0.594-0.279,1.188-0.559,1.783-0.838l12.333-8.221v1.121c-0.016,1.041,0.192,2.073,0.611,3.026
			c0.154,0.343,0.331,0.675,0.53,0.993c0.126,0.231,0.144,0.491,0.293,0.714c0.229,0.305,0.479,0.594,0.748,0.864
			c0.116,0.144,0.168,0.321,0.293,0.461c0.069,0.066,0.169,0.092,0.241,0.156c0.674,0.624,1.447,1.133,2.286,1.507
			c0.184,0.085,0.371,0.141,0.563,0.212c0.942,0.373,1.944,0.575,2.957,0.597L281.6,128l0.003-0.001l0.004,0.001
			c1.009-0.022,2.006-0.223,2.944-0.595c0.594-0.279,1.189-0.559,1.783-0.838l12.333-8.221v1.121
			c-0.001,2.263,0.898,4.434,2.499,6.035c1.6,1.6,3.771,2.499,6.035,2.499h25.6c2.263,0,4.434-0.899,6.033-2.5l25.6-25.6
			c1.601-1.6,2.5-3.77,2.5-6.033s-0.899-4.433-2.5-6.033l-17.067-17.067c-1.6-1.601-3.77-2.5-6.033-2.5h-94.248
			c-10.08-15.973-27.664-25.643-46.552-25.6c-30.633,0-55.467,24.833-55.467,55.467S169.9,153.6,200.533,153.6z M200.533,59.733
			c14.417-0.064,27.628,8.038,34.108,20.917c0.227,0.338,0.48,0.658,0.756,0.958c0.322,0.515,0.699,0.994,1.125,1.428
			c0.872,0.641,1.795,1.208,2.76,1.696c0.577,0.183,1.172,0.304,1.776,0.359c0.393,0.111,0.795,0.192,1.2,0.242H337.8l8.533,8.533
			l-17.067,17.067h-13.533V102.4c0-3.147-1.732-6.039-4.507-7.524c-2.775-1.485-6.142-1.322-8.76,0.424l-12.333,8.222V102.4
			c0-3.147-1.732-6.039-4.507-7.524c-2.775-1.485-6.142-1.322-8.76,0.424l-23.45,15.633h-11.158
			c-0.415,0.051-0.825,0.133-1.227,0.248c-0.591,0.055-1.174,0.173-1.741,0.351c-0.967,0.488-1.892,1.055-2.765,1.696
			c-0.428,0.436-0.807,0.916-1.131,1.434c-0.275,0.299-0.526,0.618-0.753,0.954c-6.48,12.879-19.691,20.981-34.108,20.917
			c-21.208,0-38.4-17.192-38.4-38.4S179.326,59.733,200.533,59.733z"/>
		<path d="M187.733,106.667c4.024-0.039,7.462-2.911,8.218-6.863c0.756-3.953-1.38-7.89-5.105-9.412s-8.007-0.205-10.235,3.146
			c-2.227,3.352-1.783,7.809,1.063,10.654C183.312,105.748,185.475,106.632,187.733,106.667z"/>
	</g>
</g>
<g>
</g>
<g>
</g>
<g>
</g>
<g>
</g>
<g>
</g>
<g>
</g>
<g>
</g>
<g>
</g>
<g>
</g>
<g>
</g>
<g>
</g>
<g>
</g>
<g>
</g>
<g>
</g>
<g>
</g>
</svg>
